<svg width="32" height="32" viewBox="0 0 32 32" fill="none" xmlns="http://www.w3.org/2000/svg">
<path d="M8.73939 8.71186L6.65302 6.64111L6.66114 21.5916L6.68553 22.2894C6.69528 22.6117 6.7668 22.9904 6.85946 23.3739L23.3887 29.1526L27.52 27.3381L27.5233 27.3325L8.74833 8.71025L8.73939 8.71186Z" fill="#888888"/>
<path d="M6.85377 23.3754H6.8554C6.85357 23.3683 6.85112 23.3613 6.84808 23.3545C6.85133 23.3625 6.85133 23.369 6.85377 23.3754ZM27.5143 27.3397L23.383 29.1542L6.8554 23.3754C7.17075 24.584 7.87136 25.9296 8.62154 26.6661L14.0143 31.984L26.0107 32.0001L27.5143 27.3429V27.3397Z" fill="#F4F4F4"/>
<path d="M6.70178 6.6417L0.275231 16.2646C-0.257944 16.8303 0.00701751 17.9954 0.866925 18.8543L4.57721 22.5623L6.90985 23.368C6.80907 22.9845 6.74567 22.6139 6.73592 22.2835L6.70991 21.5857L6.70178 6.63525V6.6417Z" fill="#6C6C6C"/>
<path d="M23.5187 6.83429C23.131 6.73761 22.758 6.67556 22.4231 6.67315L21.6778 6.64575L6.64648 6.64897L27.5216 27.3403L29.3552 23.2407L23.5195 6.84074L23.5187 6.83429Z" fill="#6C6C6C"/>
<path d="M23.4993 6.8313C23.5058 6.83372 23.5131 6.83533 23.5188 6.83694V6.83533C23.5123 6.83372 23.5058 6.83372 23.4993 6.8313ZM26.8357 8.59023C26.0766 7.83283 24.733 7.14473 23.5196 6.83613L29.3553 23.2329L27.52 27.3325L31.9902 25.9144L32 13.7478L26.8276 8.59748L26.8357 8.59023Z" fill="#F4F4F4"/>
<path d="M22.7003 4.53734L18.9615 0.857532C18.0968 0.00908945 16.9296 -0.255999 16.3509 0.27176L6.64648 6.64193L21.6778 6.63871L22.4231 6.6661C22.7588 6.67577 23.1302 6.73701 23.5187 6.82725L22.7003 4.5309V4.53734Z" fill="#888989"/>
</svg>
