<svg width="29" height="32" viewBox="0 0 29 32" fill="none" xmlns="http://www.w3.org/2000/svg">
<path d="M14.2003 32C13.7594 32 13.3478 31.8824 12.9656 31.6766L9.05564 29.3542C8.46767 29.0308 8.76166 28.9132 8.93805 28.8544C9.7318 28.5898 9.87879 28.531 10.7019 28.0606C10.7901 28.0018 10.9077 28.0312 10.9959 28.09L13.9945 29.8833C14.1121 29.9421 14.2591 29.9421 14.3473 29.8833L26.0772 23.0923C26.1948 23.0335 26.2536 22.9159 26.2536 22.7689V9.21635C26.2536 9.06936 26.1948 8.95177 26.0772 8.89297L14.3473 2.13137C14.2297 2.07258 14.0827 2.07258 13.9945 2.13137L2.26464 8.89297C2.14705 8.95177 2.08825 9.09876 2.08825 9.21635V22.7689C2.08825 22.8865 2.14705 23.0335 2.26464 23.0923L5.46905 24.9444C7.20355 25.8264 8.29128 24.7974 8.29128 23.7685V10.3923C8.29128 10.2159 8.43827 10.0395 8.64406 10.0395H10.1434C10.3198 10.0395 10.4962 10.1865 10.4962 10.3923V23.7685C10.4962 26.0909 9.23203 27.4433 7.02716 27.4433C6.351 27.4433 5.82183 27.4433 4.32252 26.7083L1.2357 24.9444C0.471349 24.5034 0.000976562 23.6803 0.000976562 22.7983V9.24575C0.000976562 8.3638 0.471349 7.54065 1.2357 7.09968L12.9656 0.308682C13.7006 -0.102894 14.7001 -0.102894 15.4351 0.308682L27.165 7.09968C27.9293 7.54065 28.3997 8.3638 28.3997 9.24575V22.7983C28.3997 23.6803 27.9293 24.5034 27.165 24.9444L15.4351 31.7354C15.0529 31.9118 14.6119 32 14.2003 32ZM17.8163 22.6808C12.6716 22.6808 11.6133 20.3289 11.6133 18.3298C11.6133 18.1534 11.7603 17.977 11.9661 17.977H13.4948C13.6712 17.977 13.8182 18.0946 13.8182 18.271C14.0533 19.8291 14.7295 20.5935 17.8457 20.5935C20.3152 20.5935 21.3735 20.0349 21.3735 18.712C21.3735 17.9476 21.0795 17.3891 17.2284 17.0069C14.0239 16.6835 12.0249 15.978 12.0249 13.4203C12.0249 11.039 14.0239 9.62793 17.3753 9.62793C21.1383 9.62793 22.9904 10.9215 23.2256 13.7437C23.2256 13.8319 23.1962 13.9201 23.1374 14.0083C23.0786 14.0671 22.9904 14.1259 22.9022 14.1259H21.3735C21.2265 14.1259 21.0795 14.0083 21.0501 13.8613C20.6973 12.2444 19.786 11.7152 17.3753 11.7152C14.6707 11.7152 14.3473 12.6559 14.3473 13.3615C14.3473 14.2141 14.7295 14.4786 18.3749 14.949C21.9909 15.4194 23.696 16.0955 23.696 18.6238C23.6666 21.2108 21.5499 22.6808 17.8163 22.6808Z" fill="#F4F4F4"/>
</svg>
