<svg width="32" height="32" viewBox="0 0 32 32" fill="none" xmlns="http://www.w3.org/2000/svg">
<path d="M16.0001 18.831C17.5783 18.831 18.8576 17.5516 18.8576 15.9735C18.8576 14.3953 17.5783 13.116 16.0001 13.116C14.4219 13.116 13.1426 14.3953 13.1426 15.9735C13.1426 17.5516 14.4219 18.831 16.0001 18.831Z" fill="#F4F4F4"/>
<path fill-rule="evenodd" clip-rule="evenodd" d="M16.0002 10.1636C19.8368 10.1636 23.4009 10.7141 26.0882 11.6392C29.326 12.7539 31.3168 14.4435 31.3168 15.9735C31.3168 17.5678 29.207 19.3628 25.73 20.5148C23.1012 21.3857 19.6421 21.8404 16.0002 21.8404C12.2662 21.8404 8.73035 21.4136 6.07203 20.5052C2.70877 19.3557 0.683044 17.5374 0.683044 15.9735C0.683044 14.456 2.5838 12.7794 5.77612 11.6664C8.47346 10.726 12.1256 10.1636 15.9996 10.1636H16.0002Z" stroke="#F4F4F4"/>
<path fill-rule="evenodd" clip-rule="evenodd" d="M10.9424 13.0853C12.8592 9.76176 15.1165 6.9493 17.2605 5.08352C19.8436 2.83553 22.3018 1.95516 23.6271 2.71939C25.0083 3.51586 25.5092 6.24032 24.7701 9.82777C24.2119 12.5401 22.8771 15.7637 21.0577 18.9186C19.1923 22.1532 17.0563 25.0031 14.9415 26.8515C12.2655 29.1908 9.67839 30.0373 8.3236 29.256C7.00896 28.4984 6.50623 26.0138 7.13689 22.6923C7.66976 19.8859 9.00701 16.4412 10.9418 13.0852L10.9424 13.0853Z" stroke="#F4F4F4"/>
<path fill-rule="evenodd" clip-rule="evenodd" d="M10.9472 18.9271C9.02511 15.6073 7.71646 12.2464 7.17021 9.45718C6.51266 6.09654 6.97757 3.52708 8.30166 2.76062C9.68146 1.96182 12.292 2.88844 15.0309 5.32041C17.1018 7.15907 19.2282 9.92488 21.0529 13.0768C22.9237 16.3083 24.3258 19.5822 24.8713 22.3375C25.5615 25.8242 25.0028 28.4883 23.6493 29.2718C22.336 30.0321 19.9327 29.2271 17.37 27.0219C15.2048 25.1587 12.8883 22.2798 10.9472 18.927V18.9271Z" stroke="#F4F4F4"/>
</svg>
