<svg width="32" height="32" viewBox="0 0 32 32" fill="none" xmlns="http://www.w3.org/2000/svg">
<path d="M0 16.001V31.001C0 31.5533 0.447715 32.001 1 32.001H31.001C31.5533 32.001 32.001 31.5533 32.001 31.001V0.999999C32.001 0.447714 31.5533 0 31.001 0H0.999999C0.447714 0 0 0.447715 0 1V16.001ZM25.7882 14.727C25.7884 14.7264 25.789 14.7261 25.7895 14.7263C26.6015 14.9293 27.2212 15.2902 27.79 15.879C28.085 16.194 28.5215 16.768 28.557 16.905C28.567 16.945 27.1755 17.88 26.332 18.4035C26.302 18.4235 26.1795 18.292 26.042 18.0885C25.6305 17.4885 25.199 17.23 24.5385 17.1845C23.5685 17.1185 22.9385 17.6265 22.9485 18.4745C22.9485 18.7235 22.9835 18.8705 23.0855 19.0745C23.299 19.5165 23.6955 19.7805 24.9395 20.3195C27.2305 21.3045 28.2105 21.9545 28.8195 22.8795C29.4995 23.9105 29.6525 25.5565 29.1905 26.7805C28.6825 28.1115 27.423 29.0155 25.6505 29.3155C25.102 29.412 23.8015 29.397 23.2125 29.2905C21.9275 29.062 20.7085 28.427 19.9565 27.594C19.6615 27.269 19.088 26.4205 19.1235 26.359C19.1385 26.339 19.271 26.2575 19.4185 26.171L20.607 25.486L21.2292 25.1252C21.3969 25.0279 21.6113 25.077 21.72 25.2375C21.989 25.649 22.5785 26.2125 22.934 26.4005C23.955 26.939 25.357 26.8625 26.0475 26.243C26.3425 25.974 26.464 25.6945 26.464 25.283C26.464 24.912 26.419 24.7495 26.2255 24.4705C25.9765 24.1155 25.4685 23.8155 24.0255 23.1905C22.3745 22.4795 21.6635 22.0375 21.0135 21.3365C20.6375 20.93 20.282 20.28 20.1345 19.7365C20.0125 19.2845 19.982 18.1515 20.0785 17.6945C20.4185 16.0945 21.6225 14.987 23.36 14.657C23.9237 14.5506 25.2335 14.591 25.787 14.7278C25.7876 14.7279 25.7881 14.7276 25.7882 14.727ZM18.276 16.061L18.2783 16.3634C18.2825 16.9186 17.8336 17.371 17.2783 17.371H15.121C14.5687 17.371 14.121 17.8187 14.121 18.371V28.206C14.121 28.7583 13.6733 29.206 13.121 29.206H12.175C11.6227 29.206 11.175 28.7583 11.175 28.206V18.371C11.175 17.8187 10.7273 17.371 10.175 17.371H8.01C7.45772 17.371 7.01 16.9233 7.01 16.371V16.086L7.03655 15.0846C7.04205 14.8773 7.15458 14.7582 7.36187 14.7549C8.1347 14.7425 10.2324 14.737 12.668 14.741L17.275 14.7534C17.8216 14.7548 18.2657 15.1949 18.2722 15.7415L18.276 16.061Z" fill="#F4F4F4"/>
</svg>
