<svg width="23" height="37" viewBox="0 0 23 37" fill="none" xmlns="http://www.w3.org/2000/svg">
<path fill-rule="evenodd" clip-rule="evenodd" d="M11.5001 3.28955C11.9357 3.28955 12.3535 3.46261 12.6616 3.77065C12.9696 4.07869 13.1427 4.49648 13.1427 4.93211V34.4982C13.1427 34.9338 12.9696 35.3516 12.6616 35.6597C12.3535 35.9677 11.9357 36.1408 11.5001 36.1408C11.0645 36.1408 10.6467 35.9677 10.3386 35.6597C10.0306 35.3516 9.85754 34.9338 9.85754 34.4982V4.93211C9.85754 4.49648 10.0306 4.07869 10.3386 3.77065C10.6467 3.46261 11.0645 3.28955 11.5001 3.28955Z" fill="#38CCD5"/>
<path fill-rule="evenodd" clip-rule="evenodd" d="M10.3371 0.482564C10.4896 0.329598 10.6709 0.208237 10.8705 0.12543C11.07 0.042624 11.2839 0 11.5 0C11.7161 0 11.93 0.042624 12.1295 0.12543C12.3291 0.208237 12.5104 0.329598 12.6629 0.482564L22.5183 10.3379C22.8267 10.6464 23 11.0647 23 11.5009C23 11.937 22.8267 12.3554 22.5183 12.6638C22.2099 12.9722 21.7915 13.1455 21.3554 13.1455C20.9192 13.1455 20.5009 12.9722 20.1924 12.6638L11.5 3.96808L2.80757 12.6638C2.49914 12.9722 2.08082 13.1455 1.64464 13.1455C1.20845 13.1455 0.790132 12.9722 0.481703 12.6638C0.173274 12.3554 0 11.937 0 11.5009C0 11.0647 0.173274 10.6464 0.481703 10.3379L10.3371 0.482564Z" fill="#38CCD5"/>
</svg>
