<svg width="61" height="61" viewBox="0 0 61 61" fill="none" xmlns="http://www.w3.org/2000/svg">
<rect width="61" height="61" rx="5" fill="#1F1F1F"/>
<path fill-rule="evenodd" clip-rule="evenodd" d="M30.4414 10.98C25.2801 10.9806 20.3304 13.0312 16.6808 16.6808C13.0313 20.3304 10.9807 25.2801 10.98 30.4414C10.98 39.0351 16.592 46.3184 24.2316 48.9463C25.1881 49.0659 25.5443 48.4681 25.5443 47.9898V44.647C20.1739 45.8426 18.9808 42.0216 18.9808 42.0216C18.1438 39.7524 16.8311 39.1546 16.8311 39.1546C15.0402 37.9615 16.9482 37.9615 16.9482 37.9615C18.8588 38.081 19.9348 39.9915 19.9348 39.9915C21.7258 42.9757 24.4708 42.1387 25.5468 41.6629C25.6639 40.3502 26.2617 39.5157 26.7399 39.0375C22.4407 38.5593 17.9047 36.8879 17.9047 29.3654C17.9047 27.2182 18.6196 25.5443 19.9348 24.112C19.8128 23.7534 19.0979 21.7257 20.1739 19.0978C20.1739 19.0978 21.8453 18.6196 25.5443 21.1279C27.0962 20.6497 28.77 20.5301 30.4414 20.5301C32.1128 20.5301 33.7842 20.7692 35.3361 21.1279C39.0375 18.622 40.7089 19.0978 40.7089 19.0978C41.7825 21.7257 41.0652 23.7534 40.9456 24.2316C42.2605 25.6641 42.9856 27.5405 42.9757 29.4849C42.9757 37.0074 38.4373 38.5593 34.1429 39.0375C34.8578 39.6329 35.4556 40.826 35.4556 42.617V47.9898C35.4556 48.4681 35.8119 49.0634 36.7683 48.9463C40.6382 47.6403 43.9997 45.1511 46.3777 41.8304C48.7556 38.5097 50.0298 34.5257 50.02 30.4414C49.9004 19.6956 41.1872 10.98 30.4414 10.98Z" fill="url(#paint0_linear)"/>
<defs>
<linearGradient id="paint0_linear" x1="17.2996" y1="10.9084" x2="23.2847" y2="50.0647" gradientUnits="userSpaceOnUse">
<stop stop-color="#B239D4"/>
<stop offset="1" stop-color="#38CCD5"/>
</linearGradient>
</defs>
</svg>
