<svg width="61" height="61" viewBox="0 0 61 61" fill="none" xmlns="http://www.w3.org/2000/svg">
<rect width="61" height="61" rx="5" fill="#1F1F1F"/>
<path d="M30.5 10.98C35.8036 10.98 36.4654 10.9995 38.5462 11.0971C40.6251 11.1947 42.0403 11.5207 43.2856 12.0048C44.574 12.5006 45.6593 13.1721 46.7446 14.2554C47.7372 15.2312 48.5052 16.4116 48.9952 17.7144C49.4774 18.9578 49.8053 20.375 49.9029 22.4538C49.9947 24.5347 50.02 25.1964 50.02 30.5C50.02 35.8036 50.0005 36.4653 49.9029 38.5461C49.8053 40.625 49.4774 42.0402 48.9952 43.2856C48.5066 44.5891 47.7384 45.7697 46.7446 46.7445C45.7685 47.7368 44.5882 48.5047 43.2856 48.9952C42.0422 49.4773 40.6251 49.8053 38.5462 49.9029C36.4654 49.9946 35.8036 50.02 30.5 50.02C25.1965 50.02 24.5347 50.0005 22.4539 49.9029C20.375 49.8053 18.9598 49.4773 17.7144 48.9952C16.4111 48.5062 15.2306 47.738 14.2555 46.7445C13.2627 45.7689 12.4947 44.5885 12.0048 43.2856C11.5207 42.0422 11.1948 40.625 11.0972 38.5461C11.0054 36.4653 10.98 35.8036 10.98 30.5C10.98 25.1964 10.9996 24.5347 11.0972 22.4538C11.1948 20.373 11.5207 18.9598 12.0048 17.7144C12.4933 16.4108 13.2615 15.2301 14.2555 14.2554C15.2309 13.2623 16.4113 12.4942 17.7144 12.0048C18.9598 11.5207 20.3731 11.1947 22.4539 11.0971C24.5347 11.0054 25.1965 10.98 30.5 10.98ZM30.5 20.74C27.9115 20.74 25.429 21.7683 23.5987 23.5986C21.7683 25.429 20.74 27.9115 20.74 30.5C20.74 33.0885 21.7683 35.571 23.5987 37.4013C25.429 39.2317 27.9115 40.26 30.5 40.26C33.0886 40.26 35.571 39.2317 37.4014 37.4013C39.2318 35.571 40.26 33.0885 40.26 30.5C40.26 27.9115 39.2318 25.429 37.4014 23.5986C35.571 21.7683 33.0886 20.74 30.5 20.74ZM43.188 20.252C43.188 19.6049 42.931 18.9842 42.4734 18.5266C42.0158 18.0691 41.3952 17.812 40.748 17.812C40.1009 17.812 39.4803 18.0691 39.0227 18.5266C38.5651 18.9842 38.308 19.6049 38.308 20.252C38.308 20.8991 38.5651 21.5197 39.0227 21.9773C39.4803 22.4349 40.1009 22.692 40.748 22.692C41.3952 22.692 42.0158 22.4349 42.4734 21.9773C42.931 21.5197 43.188 20.8991 43.188 20.252ZM30.5 24.644C32.0532 24.644 33.5426 25.261 34.6409 26.3592C35.7391 27.4574 36.356 28.9469 36.356 30.5C36.356 32.0531 35.7391 33.5426 34.6409 34.6408C33.5426 35.739 32.0532 36.356 30.5 36.356C28.9469 36.356 27.4574 35.739 26.3592 34.6408C25.261 33.5426 24.644 32.0531 24.644 30.5C24.644 28.9469 25.261 27.4574 26.3592 26.3592C27.4574 25.261 28.9469 24.644 30.5 24.644Z" fill="url(#paint0_linear)"/>
<defs>
<linearGradient id="paint0_linear" x1="17.2996" y1="10.9064" x2="23.6147" y2="51.1017" gradientUnits="userSpaceOnUse">
<stop stop-color="#B239D4"/>
<stop offset="1" stop-color="#38CCD5"/>
</linearGradient>
</defs>
</svg>
