<svg width="61" height="61" viewBox="0 0 61 61" fill="none" xmlns="http://www.w3.org/2000/svg">
<rect width="61" height="61" rx="5" fill="#1F1F1F"/>
<path d="M50.02 18.4076C48.5843 19.0269 47.022 19.4727 45.4127 19.6462C47.0835 18.6536 48.3347 17.0855 48.9315 15.236C47.3637 16.1687 45.6461 16.8227 43.8551 17.169C43.1065 16.3687 42.2011 15.7312 41.1953 15.2961C40.1896 14.861 39.105 14.6377 38.0091 14.6402C33.5754 14.6402 30.0097 18.234 30.0097 22.6443C30.0097 23.2636 30.0848 23.8829 30.2068 24.4787C23.568 24.1316 17.647 20.9599 13.7106 16.104C12.9934 17.3291 12.6175 18.724 12.6221 20.1436C12.6221 22.9211 14.0343 25.3702 16.1878 26.8105C14.9188 26.7606 13.6794 26.4117 12.5705 25.7924V25.891C12.5705 29.7804 15.3199 33.0036 18.9841 33.7449C18.2961 33.9236 17.5884 34.0151 16.8775 34.0171C16.3567 34.0171 15.8641 33.9655 15.3668 33.8951C16.3802 37.0667 19.3313 39.3703 22.8454 39.4454C20.0961 41.5989 16.6523 42.8657 12.913 42.8657C12.2421 42.8657 11.6228 42.8422 10.98 42.7672C14.527 45.0427 18.7355 46.3563 23.2677 46.3563C37.981 46.3563 46.032 34.1672 46.032 23.5873C46.032 23.2401 46.032 22.8929 46.0086 22.5457C47.5662 21.4057 48.9315 19.9934 50.02 18.4076Z" fill="url(#paint0_linear)"/>
<defs>
<linearGradient id="paint0_linear" x1="17.2996" y1="14.5804" x2="21.502" y2="47.5048" gradientUnits="userSpaceOnUse">
<stop stop-color="#B239D4"/>
<stop offset="1" stop-color="#38CCD5"/>
</linearGradient>
</defs>
</svg>
