<svg width="61" height="61" viewBox="0 0 61 61" fill="none" xmlns="http://www.w3.org/2000/svg">
<rect width="61" height="61" rx="5" fill="#1F1F1F"/>
<path d="M49.2042 21.3751C48.7552 19.6845 47.4323 18.353 45.7527 17.9011C42.7081 17.0801 30.5 17.0801 30.5 17.0801C30.5 17.0801 18.2919 17.0801 15.2473 17.9011C13.5676 18.3531 12.2448 19.6845 11.7958 21.3751C10.98 24.4394 10.98 30.8328 10.98 30.8328C10.98 30.8328 10.98 37.2262 11.7958 40.2905C12.2448 41.9811 13.5676 43.2571 15.2473 43.709C18.2919 44.53 30.5 44.53 30.5 44.53C30.5 44.53 42.7081 44.53 45.7527 43.709C47.4323 43.2571 48.7552 41.9811 49.2042 40.2905C50.02 37.2262 50.02 30.8328 50.02 30.8328C50.02 30.8328 50.02 24.4394 49.2042 21.3751ZM26.5072 36.6375V25.0281L36.7108 30.8329L26.5072 36.6375Z" fill="url(#paint0_linear)"/>
<defs>
<linearGradient id="paint0_linear" x1="17.2995" y1="17.0284" x2="20.4601" y2="45.6391" gradientUnits="userSpaceOnUse">
<stop stop-color="#B239D4"/>
<stop offset="1" stop-color="#38CCD5"/>
</linearGradient>
</defs>
</svg>
