<svg width="133" height="35" viewBox="0 0 133 35" fill="none" xmlns="http://www.w3.org/2000/svg">
<path d="M60.553 25.5479H71.8494V29H56.2293V4.11719H60.553V25.5479ZM83.7118 29C83.5295 28.6468 83.37 28.0715 83.2333 27.2739C81.9117 28.6525 80.2939 29.3418 78.3798 29.3418C76.5227 29.3418 75.0074 28.812 73.8339 27.7524C72.6604 26.6929 72.0736 25.3826 72.0736 23.8218C72.0736 21.8507 72.8028 20.3411 74.2611 19.293C75.7309 18.2334 77.8272 17.7036 80.5502 17.7036H83.0966V16.4902C83.0966 15.5332 82.8289 14.7699 82.2934 14.2002C81.7579 13.6191 80.9433 13.3286 79.8495 13.3286C78.9039 13.3286 78.1291 13.5679 77.5253 14.0464C76.9215 14.5135 76.6195 15.1117 76.6195 15.8408H72.4667C72.4667 14.8268 72.8028 13.8812 73.475 13.0039C74.1472 12.1152 75.0587 11.4202 76.2094 10.9189C77.3715 10.4176 78.6646 10.167 80.0888 10.167C82.2535 10.167 83.9796 10.7139 85.267 11.8076C86.5544 12.89 87.2152 14.4167 87.2494 16.3877V24.7275C87.2494 26.391 87.483 27.7183 87.9501 28.7095V29H83.7118ZM79.1488 26.0093C79.9692 26.0093 80.7382 25.8099 81.456 25.4111C82.1851 25.0124 82.732 24.4769 83.0966 23.8047V20.3184H80.8578C79.3197 20.3184 78.1633 20.5861 77.3886 21.1216C76.6138 21.6571 76.2265 22.4147 76.2265 23.3945C76.2265 24.1921 76.4885 24.8301 77.0126 25.3086C77.5481 25.7757 78.2602 26.0093 79.1488 26.0093ZM105.726 19.9424C105.726 22.8135 105.082 25.0978 103.794 26.7954C102.518 28.493 100.758 29.3418 98.5137 29.3418C96.349 29.3418 94.6628 28.5614 93.4551 27.0005L93.25 29H89.4902V2.75H93.6431V12.2861C94.8394 10.8734 96.4515 10.167 98.4795 10.167C100.735 10.167 102.507 11.0044 103.794 12.6792C105.082 14.354 105.726 16.6953 105.726 19.7031V19.9424ZM101.573 19.5835C101.573 17.5783 101.22 16.0744 100.513 15.0718C99.8068 14.0692 98.7814 13.5679 97.437 13.5679C95.6369 13.5679 94.3722 14.354 93.6431 15.9263V23.5483C94.3836 25.1548 95.6597 25.958 97.4712 25.958C98.77 25.958 99.7726 25.4738 100.479 24.5054C101.185 23.5369 101.55 22.0729 101.573 20.1133V19.5835ZM117.485 23.9756C117.485 23.235 117.178 22.6711 116.563 22.2837C115.959 21.8963 114.95 21.5545 113.538 21.2583C112.125 20.9621 110.946 20.5861 110 20.1304C107.927 19.1278 106.89 17.6751 106.89 15.7725C106.89 14.1774 107.562 12.8444 108.906 11.7734C110.251 10.7025 111.96 10.167 114.033 10.167C116.244 10.167 118.027 10.7139 119.382 11.8076C120.75 12.9014 121.433 14.3198 121.433 16.063H117.28C117.28 15.2655 116.984 14.6047 116.392 14.0806C115.799 13.5451 115.013 13.2773 114.033 13.2773C113.122 13.2773 112.376 13.4881 111.795 13.9097C111.225 14.3312 110.94 14.8952 110.94 15.6016C110.94 16.2396 111.208 16.7352 111.743 17.0884C112.279 17.4416 113.361 17.8005 114.99 18.165C116.62 18.5182 117.896 18.9455 118.818 19.4468C119.753 19.9367 120.442 20.5291 120.886 21.2241C121.342 21.9191 121.57 22.7622 121.57 23.7534C121.57 25.4168 120.881 26.7669 119.502 27.8037C118.123 28.8291 116.318 29.3418 114.085 29.3418C112.569 29.3418 111.219 29.0684 110.034 28.5215C108.849 27.9746 107.927 27.2227 107.266 26.2656C106.605 25.3086 106.275 24.2775 106.275 23.1724H110.308C110.365 24.1522 110.735 24.9098 111.419 25.4453C112.102 25.9694 113.008 26.2314 114.136 26.2314C115.23 26.2314 116.061 26.0264 116.631 25.6162C117.201 25.1947 117.485 24.6478 117.485 23.9756ZM125.691 24.625C126.465 24.625 127.064 24.8472 127.485 25.2915C127.907 25.7244 128.117 26.2713 128.117 26.9321C128.117 27.5815 127.907 28.1227 127.485 28.5557C127.064 28.9772 126.465 29.188 125.691 29.188C124.95 29.188 124.363 28.9772 123.93 28.5557C123.497 28.1341 123.281 27.5929 123.281 26.9321C123.281 26.2713 123.492 25.7244 123.913 25.2915C124.335 24.8472 124.927 24.625 125.691 24.625Z" fill="url(#paint0_linear)"/>
<path d="M2.22168 29V4.11719H9.87793C12.0654 4.11719 14.0194 4.61279 15.7397 5.604C17.4715 6.58382 18.8216 7.98519 19.79 9.80811C20.7585 11.6196 21.2427 13.6818 21.2427 15.9946V17.1396C21.2427 19.4525 20.7642 21.509 19.8071 23.3091C18.8615 25.1092 17.5228 26.5049 15.791 27.4961C14.0592 28.4873 12.1053 28.9886 9.9292 29H2.22168ZM7.34863 8.27002V24.8813H9.82666C11.8319 24.8813 13.3643 24.2262 14.4238 22.916C15.4834 21.6058 16.0246 19.7316 16.0474 17.2935V15.9775C16.0474 13.4482 15.5233 11.5342 14.4751 10.2354C13.4269 8.92513 11.8945 8.27002 9.87793 8.27002H7.34863ZM31.0714 29.3418C28.3598 29.3418 26.1495 28.5101 24.4405 26.8467C22.7429 25.1833 21.8941 22.9673 21.8941 20.1987V19.7202C21.8941 17.8631 22.253 16.2054 22.9708 14.7471C23.6886 13.2773 24.7026 12.1494 26.0128 11.3633C27.3344 10.5658 28.8383 10.167 30.5245 10.167C33.0538 10.167 35.0419 10.9645 36.4889 12.5596C37.9472 14.1546 38.6764 16.4162 38.6764 19.3442V21.3608H26.9015C27.061 22.5685 27.5395 23.5369 28.337 24.2661C29.1459 24.9953 30.1656 25.3599 31.3961 25.3599C33.2988 25.3599 34.7856 24.6706 35.8565 23.292L38.2833 26.0093C37.5427 27.0575 36.5401 27.8778 35.2755 28.4702C34.0108 29.0513 32.6095 29.3418 31.0714 29.3418ZM30.5074 14.166C29.5276 14.166 28.7301 14.4964 28.1148 15.1572C27.511 15.818 27.1236 16.7637 26.9527 17.9941H33.8229V17.6011C33.8001 16.5073 33.5038 15.6642 32.9342 15.0718C32.3645 14.4679 31.5556 14.166 30.5074 14.166Z" fill="url(#paint1_linear)"/>
<path d="M54.9 11H38L46.45 29.2L54.9 11Z" fill="url(#paint2_linear)"/>
<defs>
<linearGradient id="paint0_linear" x1="66.3909" y1="-0.0659235" x2="68.9682" y2="36.6786" gradientUnits="userSpaceOnUse">
<stop stop-color="#B239D4"/>
<stop offset="1" stop-color="#38CCD5"/>
</linearGradient>
<linearGradient id="paint1_linear" x1="20.3" y1="-1.16069e-06" x2="4.97563" y2="25.9507" gradientUnits="userSpaceOnUse">
<stop stop-color="#D53AC5"/>
<stop offset="1" stop-color="#38CCD6"/>
</linearGradient>
<linearGradient id="paint2_linear" x1="40.7357" y1="10.9657" x2="43.894" y2="29.6325" gradientUnits="userSpaceOnUse">
<stop stop-color="#B239D4"/>
<stop offset="1" stop-color="#38CCD5"/>
</linearGradient>
</defs>
</svg>
