<svg width="497" height="192" viewBox="0 0 497 192" fill="none" xmlns="http://www.w3.org/2000/svg">
<path d="M148.521 20.6816H160.096L188.599 16.8421L201.114 20.6816L248.282 56.3959L272.155 66.5379L341.316 108.048L424.438 129.201L496.781 148.616V191.574H0V81.0989C0 81.0989 35.2312 61.322 46.8061 59.3661C58.381 57.4101 93.1058 49.7312 93.1058 49.7312L137.452 30.896L148.521 20.6816Z" fill="url(#paint0_linear)"/>
<path opacity="0.37" d="M16.639 75.7381L81.0245 64.1473L118.137 47.2681L146.567 28.4329L160.096 20.6815H148.521L137.452 30.8236L93.1058 49.6587C93.1058 49.6587 58.381 57.4101 46.8061 59.2936C35.2312 61.2496 0 81.0265 0 81.0265V90.5889L16.639 75.7381Z" fill="#090909"/>
<path opacity="0.32" d="M424.438 129.273L341.316 108.12L272.155 66.6104L248.282 56.4684L224.481 38.4301L243.435 64.1473L294.871 96.0222C294.871 96.0222 323.23 120.001 324.098 121.305C325.038 122.609 435.434 132.244 435.434 132.244L424.438 129.273Z" fill="#0A0A0A"/>
<path d="M349.056 145.573L270.781 135.793L212.11 122.029L192.94 103.194L177.241 97.0363L154.598 75.8106L128.048 64.6544H108.298C108.298 64.6544 73.7901 80.2296 64.3855 81.5336C54.9809 82.91 38.6313 90.5165 38.6313 90.5165L0 103.194V141.951V191.937H451.06L349.056 145.573Z" fill="url(#paint1_linear)"/>
<path opacity="0.08" d="M169.79 137.242L154.598 143.4L96.723 178.897L90.4019 191.579H436.872L347.103 144.849L270.709 135.793L212.11 122.029L192.94 103.194L181.003 114.93L169.79 137.242Z" fill="url(#paint2_linear)"/>
<rect width="497" height="192" fill="url(#paint3_linear)"/>
<rect width="497" height="192" fill="url(#paint4_linear)"/>
<rect width="497" height="192" fill="url(#paint5_linear)"/>
<defs>
<linearGradient id="paint0_linear" x1="80.4159" y1="16.513" x2="90.5719" y2="200.295" gradientUnits="userSpaceOnUse">
<stop stop-color="#B239D4"/>
<stop offset="1" stop-color="#38CCD5"/>
</linearGradient>
<linearGradient id="paint1_linear" x1="177.019" y1="192" x2="175.755" y2="64.8421" gradientUnits="userSpaceOnUse">
<stop stop-color="#151515"/>
<stop offset="1" stop-color="#373737"/>
</linearGradient>
<linearGradient id="paint2_linear" x1="264" y1="103" x2="264" y2="192" gradientUnits="userSpaceOnUse">
<stop stop-color="#C1BFC7"/>
<stop offset="1" stop-color="#0E0E0E"/>
</linearGradient>
<linearGradient id="paint3_linear" x1="3.70294e-06" y1="96" x2="497" y2="96" gradientUnits="userSpaceOnUse">
<stop stop-color="#0E0E0E"/>
<stop offset="0.392578" stop-color="#0E0E0E" stop-opacity="0"/>
</linearGradient>
<linearGradient id="paint4_linear" x1="248.5" y1="0" x2="248.922" y2="203.789" gradientUnits="userSpaceOnUse">
<stop offset="0.631542" stop-color="#0E0E0E" stop-opacity="0"/>
<stop offset="1" stop-color="#0E0E0E"/>
</linearGradient>
<linearGradient id="paint5_linear" x1="0" y1="96" x2="497" y2="96" gradientUnits="userSpaceOnUse">
<stop offset="0.750666" stop-color="#0E0E0E" stop-opacity="0"/>
<stop offset="1" stop-color="#0E0E0E"/>
</linearGradient>
</defs>
</svg>
